<svg width="18" height="18" viewBox="0 0 18 18" fill="none" xmlns="http://www.w3.org/2000/svg">
<g clip-path="url(#clip0_787_8135)">
<path d="M17.7166 5.1277L16.7026 3.0082C16.4408 2.4607 15.9601 2.0362 15.3841 1.8442L10.6613 0.269947C9.59034 -0.0870528 8.41134 -0.0870528 7.34034 0.269947L2.61834 1.8442C2.04159 2.0362 1.56084 2.46145 1.29909 3.0097L0.334593 5.03995C-0.0231573 5.63395 -0.0906573 6.34645 0.149343 6.9967C0.381093 7.6267 0.872343 8.1142 1.50084 8.3437L1.49709 13.0792C1.49559 14.6977 2.52609 16.1287 4.06059 16.6402L7.33434 17.7314C7.86984 17.9099 8.43234 17.9992 8.99484 17.9992C9.55734 17.9992 10.1198 17.9099 10.6553 17.7314L13.9321 16.6387C15.4643 16.1279 16.4948 14.6999 16.4963 13.0844L16.5001 8.34445C17.1346 8.1217 17.6311 7.63495 17.8643 7.00195C18.1021 6.35845 18.0361 5.6527 17.7166 5.1277ZM7.81509 1.69345C8.58009 1.43845 9.42234 1.43845 10.1866 1.69345L13.3726 2.75545L9.00609 4.21795L4.63059 2.75545L7.81509 1.69345ZM1.65384 5.7502L2.64909 3.6637C2.68509 3.68245 7.94184 5.44345 7.94184 5.44345L6.72609 7.88695C6.54684 8.18545 6.17484 8.32345 5.84634 8.21245L2.03559 6.9427C1.81284 6.86845 1.63809 6.69895 1.55634 6.47845C1.47459 6.25795 1.49784 6.01645 1.65309 5.75095L1.65384 5.7502ZM4.53459 15.2174C3.61359 14.9107 2.99559 14.0519 2.99634 13.0814L3.00009 8.84545L5.37159 9.63595C6.37959 9.97195 7.46559 9.5707 8.04084 8.6077L8.24934 8.18995L8.24559 16.4257C8.09784 16.3957 7.95234 16.3574 7.80984 16.3094L4.53534 15.2182L4.53459 15.2174ZM13.4573 15.2167L10.1798 16.3094C10.0373 16.3567 9.89184 16.3957 9.74409 16.4257L9.74784 8.17945L9.98709 8.65945C10.4041 9.35545 11.1361 9.7537 11.9078 9.7537C12.1471 9.7537 12.3901 9.71545 12.6278 9.63595L14.9986 8.8462L14.9948 13.0844C14.9948 14.0534 14.3753 14.9107 13.4558 15.2174L13.4573 15.2167ZM16.4573 6.4837C16.3786 6.69745 16.2091 6.8617 15.9931 6.9337L12.1546 8.2132C11.8261 8.32345 11.4541 8.18695 11.3026 7.93945L10.0613 5.4472C10.0613 5.4472 15.3158 3.68395 15.3518 3.66445L16.3966 5.8402C16.5143 6.03595 16.5361 6.2707 16.4573 6.48445V6.4837Z" fill="#141C30"/>
</g>
<defs>
<clipPath id="clip0_787_8135">
<rect width="18" height="18" fill="white" transform="translate(0 0.000732422)"/>
</clipPath>
</defs>
</svg>
