<svg width="91" height="13" viewBox="0 0 91 13" fill="none" xmlns="http://www.w3.org/2000/svg">
<path d="M6.064 12.24C4.912 12.24 3.91733 11.9893 3.08 11.488C2.248 10.9867 1.60533 10.2853 1.152 9.384C0.704 8.48267 0.48 7.43467 0.48 6.24C0.48 5.04533 0.704 3.99733 1.152 3.096C1.60533 2.19467 2.248 1.49333 3.08 0.992C3.91733 0.490666 4.912 0.24 6.064 0.24C7.38667 0.24 8.496 0.568 9.392 1.224C10.2933 1.88 10.928 2.768 11.296 3.888L9.104 4.496C8.89067 3.79733 8.53067 3.256 8.024 2.872C7.51733 2.48267 6.864 2.288 6.064 2.288C5.33333 2.288 4.72267 2.45067 4.232 2.776C3.74667 3.10133 3.38133 3.56 3.136 4.152C2.89067 4.744 2.768 5.44 2.768 6.24C2.768 7.04 2.89067 7.736 3.136 8.328C3.38133 8.92 3.74667 9.37867 4.232 9.704C4.72267 10.0293 5.33333 10.192 6.064 10.192C6.864 10.192 7.51733 9.99733 8.024 9.608C8.53067 9.21867 8.89067 8.67733 9.104 7.984L11.296 8.592C10.928 9.712 10.2933 10.6 9.392 11.256C8.496 11.912 7.38667 12.24 6.064 12.24ZM14.6575 12V0.48H16.8335V9.968H21.7935V12H14.6575ZM29.2253 12.24C28.0733 12.24 27.0786 11.9893 26.2413 11.488C25.4093 10.9867 24.7666 10.2853 24.3133 9.384C23.8653 8.48267 23.6413 7.43467 23.6413 6.24C23.6413 5.04533 23.8653 3.99733 24.3133 3.096C24.7666 2.19467 25.4093 1.49333 26.2413 0.992C27.0786 0.490666 28.0733 0.24 29.2253 0.24C30.3773 0.24 31.3693 0.490666 32.2013 0.992C33.0386 1.49333 33.6813 2.19467 34.1293 3.096C34.5826 3.99733 34.8093 5.04533 34.8093 6.24C34.8093 7.43467 34.5826 8.48267 34.1293 9.384C33.6813 10.2853 33.0386 10.9867 32.2013 11.488C31.3693 11.9893 30.3773 12.24 29.2253 12.24ZM29.2253 10.192C29.9559 10.2027 30.5639 10.0453 31.0493 9.72C31.5346 9.39467 31.8973 8.93333 32.1373 8.336C32.3826 7.73867 32.5053 7.04 32.5053 6.24C32.5053 5.44 32.3826 4.74667 32.1373 4.16C31.8973 3.57333 31.5346 3.11733 31.0493 2.792C30.5639 2.46667 29.9559 2.29867 29.2253 2.288C28.4946 2.27733 27.8866 2.43467 27.4013 2.76C26.9159 3.08533 26.5506 3.54667 26.3053 4.144C26.0653 4.74133 25.9453 5.44 25.9453 6.24C25.9453 7.04 26.0653 7.73333 26.3053 8.32C26.5506 8.90667 26.9159 9.36267 27.4013 9.688C27.8866 10.0133 28.4946 10.1813 29.2253 10.192ZM42.5342 12.24C41.6062 12.24 40.7902 12.0533 40.0862 11.68C39.3822 11.3013 38.8329 10.7707 38.4382 10.088C38.0436 9.40533 37.8462 8.60267 37.8462 7.68V0.495999L40.0542 0.48V7.664C40.0542 8.04267 40.1182 8.38667 40.2462 8.696C40.3742 9.00533 40.5502 9.272 40.7743 9.496C41.0036 9.72 41.2676 9.89333 41.5662 10.016C41.8703 10.1333 42.1929 10.192 42.5342 10.192C42.8863 10.192 43.2116 10.1307 43.5103 10.008C43.8142 9.88533 44.0782 9.712 44.3022 9.488C44.5262 9.264 44.6996 8.99733 44.8223 8.688C44.9502 8.37867 45.0142 8.03733 45.0142 7.664V0.48H47.2222V7.68C47.2222 8.60267 47.0249 9.40533 46.6302 10.088C46.2356 10.7707 45.6863 11.3013 44.9823 11.68C44.2783 12.0533 43.4622 12.24 42.5342 12.24ZM50.8956 12V0.48H54.6236C54.7143 0.48 54.901 0.482666 55.1836 0.488C55.4663 0.493333 55.7383 0.511999 55.9996 0.544C56.9276 0.656 57.7143 0.978666 58.3596 1.512C59.005 2.04533 59.4956 2.72267 59.8316 3.544C60.1676 4.36533 60.3356 5.264 60.3356 6.24C60.3356 7.216 60.1676 8.11467 59.8316 8.936C59.4956 9.75733 59.005 10.4347 58.3596 10.968C57.7143 11.5013 56.9276 11.824 55.9996 11.936C55.7383 11.968 55.4663 11.9867 55.1836 11.992C54.901 11.9973 54.7143 12 54.6236 12H50.8956ZM53.1036 9.952H54.6236C54.7676 9.952 54.9623 9.94933 55.2076 9.944C55.453 9.93333 55.6743 9.90933 55.8716 9.872C56.373 9.77067 56.781 9.536 57.0956 9.168C57.4156 8.8 57.6503 8.35733 57.7996 7.84C57.9543 7.32267 58.0316 6.78933 58.0316 6.24C58.0316 5.664 57.9516 5.11733 57.7916 4.6C57.637 4.08267 57.3996 3.64533 57.0796 3.288C56.7596 2.93067 56.357 2.704 55.8716 2.608C55.6743 2.56533 55.453 2.54133 55.2076 2.536C54.9623 2.53067 54.7676 2.528 54.6236 2.528H53.1036V9.952ZM66.8981 12V0.48H73.8341V2.408H68.8261V5.28H72.8741V7.2H68.8261V12H66.8981ZM76.3931 12V0.48H78.3211V12H76.3931ZM81.6775 12V0.48H83.6295L88.9735 8.6V0.48H90.9255V12H88.9735L83.6295 3.88V12H81.6775Z" fill="#141C30"/>
</svg>
