<svg width="261" height="261" viewBox="0 0 261 261" fill="none" xmlns="http://www.w3.org/2000/svg">
<rect x="0.5" y="0.5" width="260" height="260" rx="15.5" stroke="#DCDFE3"/>
<g clip-path="url(#clip0_787_9227)">
<path d="M145.625 106H114.375C111.889 106.003 109.506 106.991 107.749 108.749C105.991 110.506 105.003 112.889 105 115.375V146.625C105.003 149.111 105.991 151.494 107.749 153.251C109.506 155.009 111.889 155.997 114.375 156H145.625C148.111 155.997 150.494 155.009 152.251 153.251C154.009 151.494 154.997 149.111 155 146.625V115.375C154.997 112.889 154.009 110.506 152.251 108.749C150.494 106.991 148.111 106.003 145.625 106ZM114.375 112.25H145.625C146.454 112.25 147.249 112.579 147.835 113.165C148.421 113.751 148.75 114.546 148.75 115.375V146.625C148.751 147.035 148.67 147.442 148.512 147.821C148.355 148.2 148.124 148.544 147.833 148.833L129.642 130.642C128.079 129.079 125.96 128.202 123.75 128.202C121.54 128.202 119.421 129.079 117.858 130.642L111.25 137.25V115.375C111.25 114.546 111.579 113.751 112.165 113.165C112.751 112.579 113.546 112.25 114.375 112.25Z" fill="#808BA0"/>
<path d="M137.292 126.833C140.169 126.833 142.501 124.501 142.501 121.625C142.501 118.749 140.169 116.417 137.292 116.417C134.416 116.417 132.084 118.749 132.084 121.625C132.084 124.501 134.416 126.833 137.292 126.833Z" fill="#808BA0"/>
</g>
<rect x="219.5" y="12.5" width="29" height="29" rx="14.5" stroke="#DCDFE3"/>
<g clip-path="url(#clip1_787_9227)">
<path d="M238.083 22.3333H237.787L236.513 20.6813C236.349 20.4701 236.139 20.2989 235.899 20.1809C235.658 20.0628 235.395 20.001 235.127 20H232.873C232.605 20.001 232.342 20.0628 232.101 20.1809C231.861 20.2989 231.651 20.4701 231.487 20.6813L230.213 22.3333H229.917C229.143 22.3343 228.402 22.6418 227.855 23.1886C227.309 23.7354 227.001 24.4767 227 25.25V31.0833C227.001 31.8566 227.309 32.5979 227.855 33.1447C228.402 33.6915 229.143 33.9991 229.917 34H238.083C238.857 33.9991 239.598 33.6915 240.145 33.1447C240.691 32.5979 240.999 31.8566 241 31.0833V25.25C240.999 24.4767 240.691 23.7354 240.145 23.1886C239.598 22.6418 238.857 22.3343 238.083 22.3333ZM232.411 21.3942C232.466 21.3236 232.536 21.2665 232.616 21.227C232.696 21.1876 232.784 21.167 232.873 21.1667H235.127C235.216 21.1671 235.304 21.1877 235.384 21.2271C235.464 21.2666 235.534 21.3237 235.589 21.3942L236.313 22.3333H231.687L232.411 21.3942ZM239.833 31.0833C239.833 31.5475 239.649 31.9926 239.321 32.3208C238.993 32.649 238.547 32.8333 238.083 32.8333H229.917C229.453 32.8333 229.007 32.649 228.679 32.3208C228.351 31.9926 228.167 31.5475 228.167 31.0833V25.25C228.167 24.7859 228.351 24.3408 228.679 24.0126C229.007 23.6844 229.453 23.5 229.917 23.5H238.083C238.547 23.5 238.993 23.6844 239.321 24.0126C239.649 24.3408 239.833 24.7859 239.833 25.25V31.0833Z" fill="#3935E7" stroke="#3935E7" stroke-width="0.3"/>
<path d="M234 24.6667C233.308 24.6667 232.631 24.8719 232.056 25.2565C231.48 25.6411 231.031 26.1877 230.766 26.8273C230.502 27.4668 230.432 28.1706 230.567 28.8495C230.702 29.5284 231.036 30.1521 231.525 30.6415C232.015 31.131 232.638 31.4644 233.317 31.5994C233.996 31.7345 234.7 31.6652 235.339 31.4002C235.979 31.1353 236.526 30.6867 236.91 30.1112C237.295 29.5356 237.5 28.8589 237.5 28.1667C237.499 27.2387 237.13 26.349 236.474 25.6928C235.818 25.0366 234.928 24.6676 234 24.6667ZM234 30.5C233.539 30.5 233.087 30.3632 232.704 30.1068C232.32 29.8504 232.021 29.486 231.844 29.0596C231.668 28.6332 231.621 28.1641 231.712 27.7115C231.802 27.2588 232.024 26.8431 232.35 26.5168C232.676 26.1904 233.092 25.9682 233.545 25.8782C233.997 25.7881 234.467 25.8343 234.893 26.0109C235.319 26.1876 235.684 26.4866 235.94 26.8703C236.196 27.2541 236.333 27.7052 236.333 28.1667C236.333 28.7855 236.088 29.379 235.65 29.8166C235.212 30.2542 234.619 30.5 234 30.5Z" fill="#3935E7" stroke="#3935E7" stroke-width="0.3"/>
</g>
<defs>
<clipPath id="clip0_787_9227">
<rect width="50" height="50" fill="white" transform="translate(105 106)"/>
</clipPath>
<clipPath id="clip1_787_9227">
<rect width="14" height="14" fill="white" transform="translate(227 20)"/>
</clipPath>
</defs>
</svg>
