<svg width="32" height="32" viewBox="0 0 32 32" fill="none" xmlns="http://www.w3.org/2000/svg">
<rect y="0.000213623" width="32" height="32" rx="10" fill="#F6F6F6"/>
<g clip-path="url(#clip0_787_4902)">
<path d="M20.375 9.00021H11.625C10.929 9.00099 10.2618 9.2778 9.7697 9.76991C9.27758 10.262 9.00077 10.9293 9 11.6252V20.3752C9.00077 21.0712 9.27758 21.7384 9.7697 22.2305C10.2618 22.7226 10.929 22.9994 11.625 23.0002H20.375C21.071 22.9994 21.7382 22.7226 22.2303 22.2305C22.7224 21.7384 22.9992 21.0712 23 20.3752V11.6252C22.9992 10.9293 22.7224 10.262 22.2303 9.76991C21.7382 9.2778 21.071 9.00099 20.375 9.00021ZM11.625 10.7502H20.375C20.6071 10.7502 20.8296 10.8424 20.9937 11.0065C21.1578 11.1706 21.25 11.3931 21.25 11.6252V20.3752C21.2502 20.4901 21.2276 20.6039 21.1835 20.71C21.1394 20.8162 21.0748 20.9125 20.9933 20.9935L15.8997 15.8999C15.4621 15.4624 14.8687 15.2167 14.25 15.2167C13.6313 15.2167 13.0379 15.4624 12.6003 15.8999L10.75 17.7502V11.6252C10.75 11.3931 10.8422 11.1706 11.0063 11.0065C11.1704 10.8424 11.3929 10.7502 11.625 10.7502Z" fill="#808BA0"/>
<path d="M18.0413 14.8335C18.8468 14.8335 19.4997 14.1806 19.4997 13.3752C19.4997 12.5698 18.8468 11.9169 18.0413 11.9169C17.2359 11.9169 16.583 12.5698 16.583 13.3752C16.583 14.1806 17.2359 14.8335 18.0413 14.8335Z" fill="#808BA0"/>
</g>
<defs>
<clipPath id="clip0_787_4902">
<rect width="14" height="14" fill="white" transform="translate(9 9.00021)"/>
</clipPath>
</defs>
</svg>
