<svg width="20" height="20" viewBox="0 0 20 20" fill="none" xmlns="http://www.w3.org/2000/svg">
<g clip-path="url(#clip0_787_13393)">
<path d="M18.3332 6.875C18.3332 5.81583 17.9399 4.85583 17.3107 4.09833C18.9365 3.78167 19.7082 2.325 19.894 1.50833L19.9999 1.04333L19.5265 0.989167C19.2465 0.956667 18.9782 0.940833 18.7224 0.940833C17.7024 0.940833 16.8724 1.195 16.2465 1.7C15.824 2.04083 15.5765 2.43667 15.4265 2.7725C14.9657 2.60667 14.4757 2.50083 13.9582 2.50083C12.2015 2.50083 10.6932 3.54833 9.99819 5.045L9.52069 3.96167C9.28569 3.42833 9.16652 2.86333 9.16652 2.28083V1.6675H9.99986V0H2.49986V1.66667H3.33319V2.28C3.33319 2.86167 3.21402 3.4275 2.97902 3.96083L2.23236 5.655C1.89069 6.4275 1.71069 7.24583 1.67902 8.0875L-0.000976562 7.2225V17.4992C-0.000976562 18.8775 1.12069 19.9992 2.49902 19.9992H17.499C18.8774 19.9992 19.999 18.8775 19.999 17.4992V7.2225L18.1157 8.19167C18.2499 7.7675 18.3324 7.32583 18.3324 6.87417L18.3332 6.875ZM13.9582 4.16667C15.4515 4.16667 16.6665 5.38167 16.6665 6.875C16.6665 7.40667 16.5024 7.91917 16.2132 8.35833L14.594 7.35167L12.2974 8.77917L11.7682 8.45083C11.4382 7.9925 11.2499 7.44417 11.2499 6.875C11.2499 5.38167 12.4649 4.16667 13.9582 4.16667ZM3.75819 6.3275L4.50486 4.63333C4.83402 3.88667 5.00069 3.095 5.00069 2.28083V1.6675H7.50069V2.28083C7.50069 3.09583 7.66736 3.88667 7.99652 4.63333L8.74319 6.3275C8.96236 6.825 9.09569 7.3475 9.14402 7.885L7.70319 8.77917L5.40652 7.35167L3.33402 8.64V8.34333C3.33402 7.64417 3.47736 6.96583 3.75902 6.32667L3.75819 6.3275ZM1.66652 17.5V9.95583L3.14652 10.7175L5.40569 9.31417L7.70236 10.74L9.99986 9.31333L10.6165 9.69667C10.6165 9.69667 10.6207 9.70333 10.6232 9.70583L10.6265 9.7025L11.6665 10.3483V17.4992C11.6665 17.7925 11.7265 18.0708 11.8199 18.3325H2.49986C2.03986 18.3325 1.66652 17.96 1.66652 17.5ZM18.3332 17.5C18.3332 17.96 17.9599 18.3333 17.4999 18.3333H14.1665C13.7065 18.3333 13.3332 17.96 13.3332 17.5V10.0975L14.594 9.315L16.8532 10.7183L18.3332 9.95667V17.5Z" fill="#3935E7"/>
</g>
<defs>
<clipPath id="clip0_787_13393">
<rect width="20" height="20" fill="white"/>
</clipPath>
</defs>
</svg>
