<svg width="16" height="14" viewBox="0 0 16 14" fill="none" xmlns="http://www.w3.org/2000/svg">
<path d="M15 1.74996C15 2.07079 14.7375 2.33329 14.4167 2.33329H1.58333C1.2625 2.33329 1 2.07079 1 1.74996C1 1.42913 1.2625 1.16663 1.58333 1.16663H14.4167C14.7375 1.16663 15 1.42913 15 1.74996ZM9.75 11.6666H6.25C5.92917 11.6666 5.66667 11.9291 5.66667 12.25C5.66667 12.5708 5.92917 12.8333 6.25 12.8333H9.75C10.0708 12.8333 10.3333 12.5708 10.3333 12.25C10.3333 11.9291 10.0708 11.6666 9.75 11.6666ZM12.0833 6.41663H3.91667C3.59583 6.41663 3.33333 6.67913 3.33333 6.99996C3.33333 7.32079 3.59583 7.58329 3.91667 7.58329H12.0833C12.4042 7.58329 12.6667 7.32079 12.6667 6.99996C12.6667 6.67913 12.4042 6.41663 12.0833 6.41663Z" fill="#141C30" stroke="#141C30" stroke-width="0.6"/>
</svg>
