<svg width="20" height="20" viewBox="0 0 20 20" fill="none" xmlns="http://www.w3.org/2000/svg">
<path d="M19.3826 13.5L17.2159 5.69081C16.7532 4.02033 15.7451 2.5526 14.352 1.52122C12.9588 0.489841 11.2607 -0.045916 9.52794 -0.000782941C7.79516 0.0443501 6.12726 0.66778 4.7897 1.77028C3.45215 2.87279 2.52179 4.39101 2.14672 6.08331L0.470885 13.625C0.389796 13.9903 0.391773 14.3693 0.476673 14.7338C0.561572 15.0983 0.727226 15.4391 0.961414 15.731C1.1956 16.0229 1.49235 16.2586 1.82975 16.4205C2.16716 16.5824 2.53663 16.6666 2.91088 16.6666H5.91672C6.10798 17.6086 6.61899 18.4554 7.36317 19.0636C8.10735 19.6719 9.03892 20.0042 10.0001 20.0042C10.9612 20.0042 11.8928 19.6719 12.6369 19.0636C13.3811 18.4554 13.8921 17.6086 14.0834 16.6666H16.9751C17.3601 16.6665 17.74 16.5773 18.085 16.4062C18.4299 16.2351 18.7307 15.9865 18.9638 15.68C19.1969 15.3735 19.3561 15.0173 19.4289 14.6391C19.5016 14.261 19.4852 13.8711 19.3826 13.5ZM10.0001 18.3333C9.48483 18.3312 8.98286 18.1699 8.5628 17.8716C8.14274 17.5732 7.82512 17.1524 7.65338 16.6666H12.3467C12.175 17.1524 11.8574 17.5732 11.4373 17.8716C11.0172 18.1699 10.5153 18.3312 10.0001 18.3333ZM17.6376 14.6708C17.5598 14.7739 17.459 14.8573 17.3433 14.9145C17.2275 14.9716 17.1 15.0009 16.9709 15H2.91088C2.7861 15 2.66292 14.9719 2.55042 14.9179C2.43793 14.8639 2.339 14.7854 2.26093 14.688C2.18286 14.5907 2.12765 14.477 2.09937 14.3555C2.0711 14.234 2.07047 14.1076 2.09755 13.9858L3.77338 6.44415C4.06868 5.11599 4.79947 3.92465 5.8496 3.05952C6.89972 2.19439 8.2089 1.70512 9.56903 1.66949C10.9292 1.63386 12.2622 2.05391 13.3561 2.86287C14.4501 3.67183 15.2423 4.82327 15.6067 6.13415L17.7734 13.9433C17.8088 14.0668 17.8149 14.1968 17.7913 14.3231C17.7678 14.4494 17.7151 14.5684 17.6376 14.6708Z" fill="#141C30"/>
</svg>
