<svg width="18" height="18" viewBox="0 0 18 18" fill="none" xmlns="http://www.w3.org/2000/svg">
<g clip-path="url(#clip0_787_8092)">
<path d="M3.75 13.5004C3.33525 13.5004 3 13.1644 3 12.7504V5.25037C3 4.83637 3.33525 4.50037 3.75 4.50037C4.16475 4.50037 4.5 4.83637 4.5 5.25037V12.7504C4.5 13.1644 4.16475 13.5004 3.75 13.5004ZM7.5 12.7504V5.25037C7.5 4.83637 7.16475 4.50037 6.75 4.50037C6.33525 4.50037 6 4.83637 6 5.25037V12.7504C6 13.1644 6.33525 13.5004 6.75 13.5004C7.16475 13.5004 7.5 13.1644 7.5 12.7504ZM15 12.7504V5.25037C15 4.83637 14.6648 4.50037 14.25 4.50037C13.8352 4.50037 13.5 4.83637 13.5 5.25037V12.7504C13.5 13.1644 13.8352 13.5004 14.25 13.5004C14.6648 13.5004 15 13.1644 15 12.7504ZM10.5 12.3754V5.62537C10.5 5.00362 9.996 4.50037 9.375 4.50037C8.754 4.50037 8.25 5.00362 8.25 5.62537V12.3754C8.25 12.9971 8.754 13.5004 9.375 13.5004C9.996 13.5004 10.5 12.9971 10.5 12.3754ZM5.25 15.7504C5.25 15.3364 4.91475 15.0004 4.5 15.0004H3C2.17275 15.0004 1.5 14.3276 1.5 13.5004V12.0004C1.5 11.5864 1.16475 11.2504 0.75 11.2504C0.33525 11.2504 0 11.5864 0 12.0004V13.5004C0 15.1549 1.3455 16.5004 3 16.5004H4.5C4.91475 16.5004 5.25 16.1644 5.25 15.7504ZM18 13.5004V12.0004C18 11.5864 17.6647 11.2504 17.25 11.2504C16.8353 11.2504 16.5 11.5864 16.5 12.0004V13.5004C16.5 14.3276 15.8273 15.0004 15 15.0004H13.5C13.0852 15.0004 12.75 15.3364 12.75 15.7504C12.75 16.1644 13.0852 16.5004 13.5 16.5004H15C16.6545 16.5004 18 15.1549 18 13.5004ZM18 6.00037V4.50037C18 2.84587 16.6545 1.50037 15 1.50037H13.5C13.0852 1.50037 12.75 1.83637 12.75 2.25037C12.75 2.66437 13.0852 3.00037 13.5 3.00037H15C15.8273 3.00037 16.5 3.67312 16.5 4.50037V6.00037C16.5 6.41437 16.8353 6.75037 17.25 6.75037C17.6647 6.75037 18 6.41437 18 6.00037ZM1.5 6.00037V4.50037C1.5 3.67312 2.17275 3.00037 3 3.00037H4.5C4.91475 3.00037 5.25 2.66437 5.25 2.25037C5.25 1.83637 4.91475 1.50037 4.5 1.50037H3C1.3455 1.50037 0 2.84587 0 4.50037V6.00037C0 6.41437 0.33525 6.75037 0.75 6.75037C1.16475 6.75037 1.5 6.41437 1.5 6.00037ZM11.625 13.5004C11.418 13.5004 11.25 13.3324 11.25 13.1254V4.87537C11.25 4.66837 11.418 4.50037 11.625 4.50037C11.832 4.50037 12 4.66837 12 4.87537V13.1254C12 13.3324 11.832 13.5004 11.625 13.5004Z" fill="#141C30"/>
</g>
<defs>
<clipPath id="clip0_787_8092">
<rect width="18" height="18" fill="white" transform="translate(0 0.000366211)"/>
</clipPath>
</defs>
</svg>
