<svg width="21" height="20" viewBox="0 0 21 20" fill="none" xmlns="http://www.w3.org/2000/svg">
<path d="M1.06978 6.74032L9.28811 11.6712C9.71311 11.9262 10.1889 12.0537 10.6656 12.0537C11.1414 12.0537 11.6181 11.9262 12.0431 11.6712L20.2606 6.74032C20.5114 6.58948 20.6648 6.31865 20.6648 6.02615C20.6648 5.73365 20.5114 5.46198 20.2606 5.31198L12.0439 0.380317C11.1931 -0.130516 10.1381 -0.130516 9.28811 0.380317L1.06978 5.31115C0.818946 5.46198 0.665612 5.73282 0.665612 6.02532C0.665612 6.31782 0.818946 6.58948 1.06978 6.73948V6.74032ZM10.1456 1.80948C10.4656 1.61782 10.8648 1.61782 11.1856 1.80948L18.2123 6.02615L11.1856 10.2428C10.8648 10.4345 10.4656 10.4345 10.1448 10.2428L3.11895 6.02532L10.1456 1.80948ZM20.6656 16.667C20.6656 17.1278 20.2923 17.5003 19.8323 17.5003H18.1656V19.167C18.1656 19.6278 17.7923 20.0003 17.3323 20.0003C16.8723 20.0003 16.4989 19.6278 16.4989 19.167V17.5003H14.8323C14.3723 17.5003 13.9989 17.1278 13.9989 16.667C13.9989 16.2062 14.3723 15.8337 14.8323 15.8337H16.4989V14.167C16.4989 13.7062 16.8723 13.3337 17.3323 13.3337C17.7923 13.3337 18.1656 13.7062 18.1656 14.167V15.8337H19.8323C20.2923 15.8337 20.6656 16.2062 20.6656 16.667ZM11.3798 19.4053C11.2231 19.6653 10.9473 19.8095 10.6648 19.8095C10.5189 19.8095 10.3706 19.7712 10.2364 19.6903L1.06978 14.1912C0.674779 13.9545 0.547279 13.4428 0.783946 13.0478C1.01978 12.6528 1.53145 12.5245 1.92728 12.762L11.0939 18.262C11.4889 18.4987 11.6164 19.0103 11.3798 19.4053ZM20.5464 9.24198C20.7831 9.63698 20.6556 10.1487 20.2606 10.3853L11.0939 15.8853C10.9614 15.9645 10.8139 16.0045 10.6648 16.0045C10.5156 16.0045 10.3681 15.9645 10.2356 15.8853L1.06978 10.3853C0.674779 10.1487 0.547279 9.63698 0.783946 9.24198C1.01978 8.84615 1.53145 8.71865 1.92728 8.95615L10.6648 14.1987L19.4023 8.95615C19.7973 8.71948 20.3098 8.84698 20.5464 9.24198Z" fill="#3935E7"/>
</svg>
