<svg width="14" height="14" viewBox="0 0 14 14" fill="none" xmlns="http://www.w3.org/2000/svg">
<rect width="14" height="14" fill="white"/>
<path d="M12.2506 2.33333H10.4422C10.3068 1.67499 9.94863 1.08345 9.42797 0.658419C8.9073 0.233386 8.25602 0.000848473 7.5839 0L6.41724 0C5.74512 0.000848473 5.09384 0.233386 4.57317 0.658419C4.05251 1.08345 3.69429 1.67499 3.5589 2.33333H1.75057C1.59586 2.33333 1.44749 2.39479 1.33809 2.50419C1.22869 2.61358 1.16724 2.76196 1.16724 2.91667C1.16724 3.07138 1.22869 3.21975 1.33809 3.32915C1.44749 3.43854 1.59586 3.5 1.75057 3.5H2.3339V11.0833C2.33483 11.8566 2.64242 12.5979 3.1892 13.1447C3.73598 13.6915 4.47731 13.9991 5.25057 14H8.75057C9.52384 13.9991 10.2652 13.6915 10.8119 13.1447C11.3587 12.5979 11.6663 11.8566 11.6672 11.0833V3.5H12.2506C12.4053 3.5 12.5537 3.43854 12.6631 3.32915C12.7724 3.21975 12.8339 3.07138 12.8339 2.91667C12.8339 2.76196 12.7724 2.61358 12.6631 2.50419C12.5537 2.39479 12.4053 2.33333 12.2506 2.33333ZM6.41724 1.16667H7.5839C7.94573 1.16711 8.29856 1.27947 8.59401 1.48834C8.88946 1.69721 9.11306 1.99237 9.23415 2.33333H4.76699C4.88808 1.99237 5.11168 1.69721 5.40713 1.48834C5.70258 1.27947 6.05541 1.16711 6.41724 1.16667ZM10.5006 11.0833C10.5006 11.5475 10.3162 11.9926 9.98801 12.3208C9.65982 12.649 9.2147 12.8333 8.75057 12.8333H5.25057C4.78644 12.8333 4.34132 12.649 4.01313 12.3208C3.68494 11.9926 3.50057 11.5475 3.50057 11.0833V3.5H10.5006V11.0833Z" fill="#808BA0"/>
<path d="M5.83333 10.4999C5.98804 10.4999 6.13642 10.4385 6.24581 10.3291C6.35521 10.2197 6.41667 10.0713 6.41667 9.91658V6.41659C6.41667 6.26188 6.35521 6.1135 6.24581 6.00411C6.13642 5.89471 5.98804 5.83325 5.83333 5.83325C5.67862 5.83325 5.53025 5.89471 5.42085 6.00411C5.31146 6.1135 5.25 6.26188 5.25 6.41659V9.91658C5.25 10.0713 5.31146 10.2197 5.42085 10.3291C5.53025 10.4385 5.67862 10.4999 5.83333 10.4999Z" fill="#808BA0"/>
<path d="M8.1661 10.4999C8.32081 10.4999 8.46918 10.4385 8.57858 10.3291C8.68797 10.2197 8.74943 10.0713 8.74943 9.91658V6.41659C8.74943 6.26188 8.68797 6.1135 8.57858 6.00411C8.46918 5.89471 8.32081 5.83325 8.1661 5.83325C8.01139 5.83325 7.86301 5.89471 7.75362 6.00411C7.64422 6.1135 7.58276 6.26188 7.58276 6.41659V9.91658C7.58276 10.0713 7.64422 10.2197 7.75362 10.3291C7.86301 10.4385 8.01139 10.4999 8.1661 10.4999Z" fill="#808BA0"/>
</svg>
