<svg width="20" height="20" viewBox="0 0 20 20" fill="none" xmlns="http://www.w3.org/2000/svg">
    <g clip-path="url(#clip0_35_2295)">
        <path d="M15.5944 9.99996H11.6669C11.2248 9.99996 10.8009 9.82436 10.4884 9.5118C10.1758 9.19924 10.0002 8.77532 10.0002 8.33329V4.39496C10.0013 4.01161 9.9143 3.63313 9.74582 3.28879C9.57733 2.94445 9.33192 2.64347 9.02854 2.40912C8.74107 2.18147 8.40512 2.02294 8.04663 1.94578C7.68814 1.86862 7.31672 1.87489 6.96104 1.96412C4.94076 2.46563 3.15215 3.64167 1.89102 5.29776C0.629887 6.95384 -0.0282285 8.99077 0.0255093 11.0717C0.0792472 13.1526 0.841619 15.1528 2.18655 16.7416C3.53148 18.3304 5.3784 19.4126 7.42188 19.8091C9.71946 20.2489 12.0982 19.7936 14.0711 18.5366C16.0439 17.2795 17.4615 15.3157 18.0335 13.0475C18.1231 12.6913 18.1296 12.3194 18.0526 11.9603C17.9756 11.6013 17.8171 11.2647 17.5894 10.9766C17.3523 10.6737 17.0495 10.4284 16.704 10.2592C16.3585 10.0901 15.9791 10.0014 15.5944 9.99996ZM16.4177 12.64C16.0986 13.9248 15.444 15.1019 14.5208 16.0508C13.5975 16.9997 12.4388 17.6863 11.1631 18.0404C9.88748 18.3946 8.54063 18.4035 7.26038 18.0664C5.98012 17.7292 4.81239 17.058 3.87663 16.1215C2.94087 15.1849 2.27067 14.0167 1.93456 12.7361C1.59845 11.4556 1.60851 10.1088 1.96371 8.83338C2.3189 7.558 3.00648 6.39986 3.95613 5.47741C4.90577 4.55495 6.08339 3.9013 7.36854 3.58329C7.47849 3.55582 7.59334 3.55448 7.70389 3.57937C7.81445 3.60426 7.91764 3.65469 8.00521 3.72662C8.10862 3.80546 8.19248 3.90706 8.25029 4.02354C8.30809 4.14002 8.33829 4.26825 8.33854 4.39829V8.33329C8.33854 9.21734 8.68973 10.0652 9.31485 10.6903C9.93997 11.3154 10.7878 11.6666 11.6719 11.6666H15.5985C15.7297 11.6672 15.8591 11.6974 15.9768 11.7552C16.0946 11.8129 16.1978 11.8966 16.2785 12C16.3494 12.0887 16.3987 12.1927 16.4227 12.3037C16.4467 12.4148 16.4456 12.5298 16.4177 12.64Z" fill="#141C30"/>
        <path d="M19.7093 6.20495C19.3256 4.79451 18.5803 3.5087 17.5471 2.47477C16.5139 1.44083 15.2286 0.694612 13.8185 0.309953C13.6706 0.270211 13.5182 0.250039 13.3651 0.249953C13.1449 0.247861 12.9265 0.289426 12.7224 0.372247C12.5184 0.455068 12.3328 0.577502 12.1764 0.732475C12.0199 0.887448 11.8957 1.07189 11.811 1.27514C11.7262 1.47838 11.6826 1.69641 11.6826 1.91662V5.83329C11.6826 6.49633 11.946 7.13221 12.4148 7.60105C12.8837 8.0699 13.5196 8.33329 14.1826 8.33329H18.1151C18.3723 8.33081 18.6255 8.26907 18.855 8.15285C19.0845 8.03664 19.2841 7.86908 19.4383 7.66319C19.5925 7.45731 19.6972 7.21864 19.7442 6.96573C19.7912 6.71283 19.7792 6.45249 19.7093 6.20495ZM17.6276 6.66662H14.1793C13.9583 6.66662 13.7463 6.57882 13.59 6.42254C13.4337 6.26626 13.346 6.0543 13.346 5.83329L13.3393 1.92245C13.3454 1.91804 13.3526 1.91544 13.3601 1.91495H13.3818C14.5169 2.22419 15.551 2.82571 16.381 3.65949C17.2109 4.49327 17.8077 5.53014 18.1118 6.66662H17.6276Z" fill="#141C30"/>
    </g>
    <defs>
        <clipPath id="clip0_35_2295">
            <rect width="20" height="20" fill="white"/>
        </clipPath>
    </defs>
</svg>
