<svg width="22" height="20" viewBox="0 0 22 20" fill="none" xmlns="http://www.w3.org/2000/svg">
    <path fill-rule="evenodd" clip-rule="evenodd" d="M3.25 1H6.75C7.99264 1 9 2.00736 9 3.25V6.75C9 7.99264 7.99264 9 6.75 9H3.25C2.00736 9 1 7.99264 1 6.75V3.25C1 2.00736 2.00736 1 3.25 1ZM6.75 7.5C7.16421 7.5 7.5 7.16421 7.5 6.75V3.25C7.5 2.83579 7.16421 2.5 6.75 2.5H3.25C2.83804 2.50539 2.50539 2.83804 2.5 3.25V6.75C2.50539 7.16196 2.83804 7.49461 3.25 7.5H6.75Z" fill="#141C30"/>
    <path d="M13 4.75H18C18.4142 4.75 18.75 4.41421 18.75 4C18.75 3.58579 18.4142 3.25 18 3.25H13C12.5858 3.25 12.25 3.58579 12.25 4C12.25 4.41421 12.5858 4.75 13 4.75Z" fill="#141C30"/>
    <path d="M13 7.75H21C21.4142 7.75 21.75 7.41421 21.75 7C21.75 6.58579 21.4142 6.25 21 6.25H13C12.5858 6.25 12.25 6.58579 12.25 7C12.25 7.41421 12.5858 7.75 13 7.75Z" fill="#141C30"/>
    <path fill-rule="evenodd" clip-rule="evenodd" d="M3.25 11H6.75C7.99264 11 9 12.0074 9 13.25V16.75C9 17.3467 8.76295 17.919 8.34099 18.341C7.91903 18.7629 7.34674 19 6.75 19H3.25C2.00736 19 1 17.9926 1 16.75V13.25C1 12.0074 2.00736 11 3.25 11ZM6.75 17.5C7.16421 17.5 7.5 17.1642 7.5 16.75V13.25C7.5 12.8358 7.16421 12.5 6.75 12.5H3.25C2.83804 12.5054 2.50539 12.838 2.5 13.25V16.75C2.50539 17.162 2.83804 17.4946 3.25 17.5H6.75Z" fill="#141C30"/>
    <path d="M13 14.75H18C18.4142 14.75 18.75 14.4142 18.75 14C18.75 13.5858 18.4142 13.25 18 13.25H13C12.5858 13.25 12.25 13.5858 12.25 14C12.25 14.4142 12.5858 14.75 13 14.75Z" fill="#141C30"/>
    <path d="M21 16.25H13C12.5858 16.25 12.25 16.5858 12.25 17C12.25 17.4142 12.5858 17.75 13 17.75H21C21.4142 17.75 21.75 17.4142 21.75 17C21.75 16.5858 21.4142 16.25 21 16.25Z" fill="#141C30"/>
    <path fill-rule="evenodd" clip-rule="evenodd" d="M3.25 1H6.75C7.99264 1 9 2.00736 9 3.25V6.75C9 7.99264 7.99264 9 6.75 9H3.25C2.00736 9 1 7.99264 1 6.75V3.25C1 2.00736 2.00736 1 3.25 1ZM6.75 7.5C7.16421 7.5 7.5 7.16421 7.5 6.75V3.25C7.5 2.83579 7.16421 2.5 6.75 2.5H3.25C2.83804 2.50539 2.50539 2.83804 2.5 3.25V6.75C2.50539 7.16196 2.83804 7.49461 3.25 7.5H6.75Z" stroke="#141C30" stroke-width="0.3"/>
    <path d="M13 4.75H18C18.4142 4.75 18.75 4.41421 18.75 4C18.75 3.58579 18.4142 3.25 18 3.25H13C12.5858 3.25 12.25 3.58579 12.25 4C12.25 4.41421 12.5858 4.75 13 4.75Z" stroke="#141C30" stroke-width="0.3"/>
    <path d="M13 7.75H21C21.4142 7.75 21.75 7.41421 21.75 7C21.75 6.58579 21.4142 6.25 21 6.25H13C12.5858 6.25 12.25 6.58579 12.25 7C12.25 7.41421 12.5858 7.75 13 7.75Z" stroke="#141C30" stroke-width="0.3"/>
    <path fill-rule="evenodd" clip-rule="evenodd" d="M3.25 11H6.75C7.99264 11 9 12.0074 9 13.25V16.75C9 17.3467 8.76295 17.919 8.34099 18.341C7.91903 18.7629 7.34674 19 6.75 19H3.25C2.00736 19 1 17.9926 1 16.75V13.25C1 12.0074 2.00736 11 3.25 11ZM6.75 17.5C7.16421 17.5 7.5 17.1642 7.5 16.75V13.25C7.5 12.8358 7.16421 12.5 6.75 12.5H3.25C2.83804 12.5054 2.50539 12.838 2.5 13.25V16.75C2.50539 17.162 2.83804 17.4946 3.25 17.5H6.75Z" stroke="#141C30" stroke-width="0.3"/>
    <path d="M13 14.75H18C18.4142 14.75 18.75 14.4142 18.75 14C18.75 13.5858 18.4142 13.25 18 13.25H13C12.5858 13.25 12.25 13.5858 12.25 14C12.25 14.4142 12.5858 14.75 13 14.75Z" stroke="#141C30" stroke-width="0.3"/>
    <path d="M21 16.25H13C12.5858 16.25 12.25 16.5858 12.25 17C12.25 17.4142 12.5858 17.75 13 17.75H21C21.4142 17.75 21.75 17.4142 21.75 17C21.75 16.5858 21.4142 16.25 21 16.25Z" stroke="#141C30" stroke-width="0.3"/>
</svg>
