<svg width="20" height="20" viewBox="0 0 20 20" fill="none" xmlns="http://www.w3.org/2000/svg">
    <g clip-path="url(#clip0_35_2340)">
        <path d="M19.9999 19.1667C19.9999 19.3877 19.9121 19.5997 19.7558 19.756C19.5995 19.9123 19.3876 20 19.1665 20H0.833212C0.612198 20 0.400236 19.9123 0.243956 19.756C0.0876755 19.5997 -0.000121896 19.3877 -0.000121896 19.1667C-0.000121896 18.9457 0.0876755 18.7337 0.243956 18.5775C0.400236 18.4212 0.612198 18.3334 0.833212 18.3334H19.1665C19.3876 18.3334 19.5995 18.4212 19.7558 18.5775C19.9121 18.7337 19.9999 18.9457 19.9999 19.1667ZM0.242378 7.12671C0.0628134 6.79365 -0.0203764 6.41713 0.00214513 6.03942C0.0246666 5.66171 0.152008 5.29775 0.369878 4.98838C0.725927 4.46598 1.20275 4.03718 1.75988 3.73838L8.01071 0.485046C8.6251 0.165572 9.30739 -0.0012207 9.99988 -0.0012207C10.6924 -0.0012207 11.3747 0.165572 11.989 0.485046L18.239 3.74088C18.7962 4.03968 19.273 4.46848 19.629 4.99088C19.8469 5.30025 19.9743 5.66421 19.9968 6.04192C20.0193 6.41963 19.9361 6.79615 19.7565 7.12921C19.5632 7.4949 19.2733 7.80055 18.9183 8.01287C18.5633 8.22519 18.1568 8.33605 17.7432 8.33338H17.4999V15H18.3332C18.5542 15 18.7662 15.0878 18.9225 15.2441C19.0787 15.4004 19.1665 15.6124 19.1665 15.8334C19.1665 16.0544 19.0787 16.2664 18.9225 16.4226C18.7662 16.5789 18.5542 16.6667 18.3332 16.6667H1.66654C1.44553 16.6667 1.23357 16.5789 1.07729 16.4226C0.921009 16.2664 0.833212 16.0544 0.833212 15.8334C0.833212 15.6124 0.921009 15.4004 1.07729 15.2441C1.23357 15.0878 1.44553 15 1.66654 15H2.49988V8.33338H2.25654C1.84251 8.33597 1.43572 8.2248 1.08054 8.01202C0.725355 7.79923 0.435427 7.493 0.242378 7.12671ZM4.16654 15H6.66655V8.33338H4.16654V15ZM8.33321 8.33338V15H11.6665V8.33338H8.33321ZM15.8332 8.33338H13.3332V15H15.8332V8.33338ZM1.71904 6.35421C1.77133 6.45061 1.84914 6.53076 1.94395 6.58588C2.03875 6.641 2.1469 6.66897 2.25654 6.66671H17.7432C17.8529 6.66897 17.961 6.641 18.0558 6.58588C18.1506 6.53076 18.2284 6.45061 18.2807 6.35421C18.3188 6.29052 18.3372 6.21699 18.3337 6.14286C18.3301 6.06873 18.3047 5.9973 18.2607 5.93755C18.0588 5.63747 17.7875 5.3905 17.4699 5.21755L11.2199 1.96171C10.8432 1.76623 10.4251 1.66419 10.0007 1.66419C9.57635 1.66419 9.15821 1.76623 8.78155 1.96171L2.53154 5.21755C2.21403 5.39105 1.94282 5.63826 1.74071 5.93838C1.69662 5.99789 1.67105 6.06907 1.66719 6.14303C1.66334 6.21699 1.68138 6.29045 1.71904 6.35421Z" fill="#141C30"/>
    </g>
    <defs>
        <clipPath id="clip0_35_2340">
            <rect width="20" height="20" fill="white"/>
        </clipPath>
    </defs>
</svg>
