<svg width="20" height="22" viewBox="0 0 20 22" fill="none" xmlns="http://www.w3.org/2000/svg">
    <path fill-rule="evenodd" clip-rule="evenodd" d="M11.6222 0.788927L18.2889 4.48892C19.3484 5.07916 20.0037 6.19831 20 7.41114V14.5889C20.0037 15.8017 19.3484 16.9209 18.2889 17.5111L11.6222 21.2111C10.6137 21.773 9.38629 21.773 8.37778 21.2111L1.71112 17.5111C0.651603 16.9209 -0.00371518 15.8017 1.58474e-05 14.5889V7.41114C-0.00371518 6.19831 0.651603 5.07916 1.71112 4.48892L8.37778 0.788927C9.38629 0.227096 10.6137 0.227096 11.6222 0.788927ZM17.4333 16.0556C17.9597 15.7543 18.2857 15.1954 18.2889 14.5889V7.41114C18.2857 6.80464 17.9597 6.24574 17.4333 5.94448L10.7667 2.24448C10.2624 1.96357 9.6487 1.96357 9.14445 2.24448L2.47779 5.94448C1.95139 6.24574 1.62537 6.80464 1.62224 7.41114V14.5889C1.62537 15.1954 1.95139 15.7543 2.47779 16.0556L9.14445 19.7556C9.6487 20.0365 10.2624 20.0365 10.7667 19.7556L17.4333 16.0556Z" fill="#141C30"/>
    <path d="M15.2 6.77781L10.5 9.38892C10.1906 9.56755 9.80942 9.56755 9.50002 9.38892L4.80002 6.77781C4.53945 6.62532 4.21679 6.62569 3.95657 6.77878C3.69635 6.93186 3.53929 7.21372 3.546 7.51556C3.55271 7.81739 3.72215 8.09199 3.98891 8.23336L8.68891 10.8445C8.84482 10.9272 9.00859 10.9942 9.1778 11.0445V16C9.1778 16.4603 9.55089 16.8333 10.0111 16.8333C10.4714 16.8333 10.8445 16.4603 10.8445 16V11C11.0069 10.9555 11.1635 10.8921 11.3111 10.8111L16.0111 8.20003C16.4024 7.97103 16.5389 7.47121 16.3182 7.07516C16.0975 6.67911 15.6006 6.53217 15.2 6.74447V6.77781Z" fill="#141C30"/>
</svg>
