<svg width="20" height="20" viewBox="0 0 20 20" fill="none" xmlns="http://www.w3.org/2000/svg">
    <g clip-path="url(#clip0_35_2364)">
        <path d="M19.1668 13.3333C18.9458 13.3333 18.7339 13.4211 18.5776 13.5774C18.4213 13.7337 18.3335 13.9456 18.3335 14.1666V15.8333C18.3335 16.4964 18.0701 17.1322 17.6013 17.6011C17.1324 18.0699 16.4965 18.3333 15.8335 18.3333H14.1668C13.9458 18.3333 13.7339 18.4211 13.5776 18.5774C13.4213 18.7337 13.3335 18.9456 13.3335 19.1666C13.3335 19.3877 13.4213 19.5996 13.5776 19.7559C13.7339 19.9122 13.9458 20 14.1668 20H15.8335C16.9382 19.9987 17.9972 19.5592 18.7783 18.7781C19.5594 17.997 19.9988 16.938 20.0002 15.8333V14.1666C20.0002 13.9456 19.9124 13.7337 19.7561 13.5774C19.5998 13.4211 19.3878 13.3333 19.1668 13.3333Z" fill="#141C30"/>
        <path d="M0.833333 6.66667C1.05435 6.66667 1.26631 6.57887 1.42259 6.42259C1.57887 6.26631 1.66667 6.05435 1.66667 5.83333V4.16667C1.66667 3.50363 1.93006 2.86774 2.3989 2.3989C2.86774 1.93006 3.50363 1.66667 4.16667 1.66667H5.83333C6.05435 1.66667 6.26631 1.57887 6.42259 1.42259C6.57887 1.26631 6.66667 1.05435 6.66667 0.833333C6.66667 0.61232 6.57887 0.400358 6.42259 0.244078C6.26631 0.0877974 6.05435 0 5.83333 0L4.16667 0C3.062 0.00132321 2.00296 0.440735 1.22185 1.22185C0.440735 2.00296 0.00132321 3.062 0 4.16667L0 5.83333C0 6.05435 0.0877974 6.26631 0.244078 6.42259C0.400358 6.57887 0.61232 6.66667 0.833333 6.66667Z" fill="#141C30"/>
        <path d="M5.83333 18.3333H4.16667C3.50363 18.3333 2.86774 18.0699 2.3989 17.6011C1.93006 17.1322 1.66667 16.4964 1.66667 15.8333V14.1666C1.66667 13.9456 1.57887 13.7337 1.42259 13.5774C1.26631 13.4211 1.05435 13.3333 0.833333 13.3333C0.61232 13.3333 0.400358 13.4211 0.244078 13.5774C0.0877974 13.7337 0 13.9456 0 14.1666L0 15.8333C0.00132321 16.938 0.440735 17.997 1.22185 18.7781C2.00296 19.5592 3.062 19.9987 4.16667 20H5.83333C6.05435 20 6.26631 19.9122 6.42259 19.7559C6.57887 19.5996 6.66667 19.3877 6.66667 19.1666C6.66667 18.9456 6.57887 18.7337 6.42259 18.5774C6.26631 18.4211 6.05435 18.3333 5.83333 18.3333Z" fill="#141C30"/>
        <path d="M15.8335 0H14.1668C13.9458 0 13.7339 0.0877974 13.5776 0.244078C13.4213 0.400358 13.3335 0.61232 13.3335 0.833333C13.3335 1.05435 13.4213 1.26631 13.5776 1.42259C13.7339 1.57887 13.9458 1.66667 14.1668 1.66667H15.8335C16.4965 1.66667 17.1324 1.93006 17.6013 2.3989C18.0701 2.86774 18.3335 3.50363 18.3335 4.16667V5.83333C18.3335 6.05435 18.4213 6.26631 18.5776 6.42259C18.7339 6.57887 18.9458 6.66667 19.1668 6.66667C19.3878 6.66667 19.5998 6.57887 19.7561 6.42259C19.9124 6.26631 20.0002 6.05435 20.0002 5.83333V4.16667C19.9988 3.062 19.5594 2.00296 18.7783 1.22185C17.9972 0.440735 16.9382 0.00132321 15.8335 0Z" fill="#141C30"/>
        <path d="M9.99984 9.16667C10.6591 9.16667 11.3036 8.97117 11.8517 8.6049C12.3999 8.23863 12.8271 7.71803 13.0794 7.10895C13.3317 6.49986 13.3977 5.82964 13.2691 5.18303C13.1405 4.53643 12.823 3.94249 12.3569 3.47631C11.8907 3.01014 11.2967 2.69267 10.6501 2.56405C10.0035 2.43543 9.33331 2.50144 8.72423 2.75374C8.11514 3.00603 7.59454 3.43327 7.22827 3.98143C6.862 4.5296 6.6665 5.17406 6.6665 5.83334C6.6665 6.71739 7.01769 7.56524 7.64281 8.19036C8.26794 8.81548 9.11578 9.16667 9.99984 9.16667ZM9.99984 4.16667C10.3295 4.16667 10.6517 4.26442 10.9258 4.44755C11.1999 4.63069 11.4135 4.89099 11.5396 5.19553C11.6658 5.50007 11.6988 5.83518 11.6345 6.15849C11.5702 6.48179 11.4114 6.77876 11.1783 7.01185C10.9453 7.24493 10.6483 7.40367 10.325 7.46798C10.0017 7.53229 9.66658 7.49928 9.36203 7.37314C9.05749 7.24699 8.79719 7.03337 8.61405 6.75929C8.43092 6.4852 8.33317 6.16297 8.33317 5.83334C8.33317 5.39131 8.50877 4.96738 8.82133 4.65482C9.13389 4.34226 9.55781 4.16667 9.99984 4.16667Z" fill="#141C30"/>
        <path d="M14.9998 16.6666C15.2209 16.6666 15.4328 16.5789 15.5891 16.4226C15.7454 16.2663 15.8332 16.0543 15.8332 15.8333C15.8318 14.5076 15.3046 13.2366 14.3672 12.2992C13.4298 11.3618 12.1588 10.8346 10.8332 10.8333H9.1665C7.84083 10.8346 6.56983 11.3618 5.63243 12.2992C4.69504 13.2366 4.16783 14.5076 4.1665 15.8333C4.1665 16.0543 4.2543 16.2663 4.41058 16.4226C4.56686 16.5789 4.77882 16.6666 4.99984 16.6666C5.22085 16.6666 5.43281 16.5789 5.58909 16.4226C5.74537 16.2663 5.83317 16.0543 5.83317 15.8333C5.83317 14.9493 6.18436 14.1014 6.80948 13.4763C7.4346 12.8512 8.28245 12.5 9.1665 12.5H10.8332C11.7172 12.5 12.5651 12.8512 13.1902 13.4763C13.8153 14.1014 14.1665 14.9493 14.1665 15.8333C14.1665 16.0543 14.2543 16.2663 14.4106 16.4226C14.5669 16.5789 14.7788 16.6666 14.9998 16.6666Z" fill="#141C30"/>
    </g>
    <defs>
        <clipPath id="clip0_35_2364">
            <rect width="20" height="20" fill="white"/>
        </clipPath>
    </defs>
</svg>
