<svg width="20" height="20" viewBox="0 0 20 20" fill="none" xmlns="http://www.w3.org/2000/svg">
    <path d="M4.399 5.57751C4.07984 5.24584 4.08984 4.71834 4.4215 4.39917L8.244 0.720839C9.16484 -0.200828 10.8232 -0.212494 11.7682 0.732506L15.5782 4.39917C15.9098 4.71834 15.9198 5.24584 15.6007 5.57751C15.4373 5.74751 15.219 5.83334 14.9998 5.83334C14.7915 5.83334 14.5832 5.75584 14.4223 5.60084L10.8332 2.14584V13.3333C10.8332 13.7933 10.4598 14.1667 9.99984 14.1667C9.53984 14.1667 9.1665 13.7933 9.1665 13.3333V2.14584L5.57734 5.60084C5.2465 5.92001 4.71984 5.90917 4.399 5.57751ZM17.4998 6.66667C17.0398 6.66667 16.6665 7.04001 16.6665 7.50001V15.8333C16.6665 17.2117 15.5448 18.3333 14.1665 18.3333H5.83317C4.45484 18.3333 3.33317 17.2117 3.33317 15.8333V7.50001C3.33317 7.04001 2.95984 6.66667 2.49984 6.66667C2.03984 6.66667 1.6665 7.04001 1.6665 7.50001V15.8333C1.6665 18.1308 3.53567 20 5.83317 20H14.1665C16.464 20 18.3332 18.1308 18.3332 15.8333V7.50001C18.3332 7.04001 17.9598 6.66667 17.4998 6.66667Z" fill="#141C30"/>
</svg>
