<svg width="20" height="20" viewBox="0 0 20 20" fill="none" xmlns="http://www.w3.org/2000/svg">
    <g clip-path="url(#clip0_35_2329)">
        <path d="M5.83317 20C6.75365 20 7.49984 19.2538 7.49984 18.3333C7.49984 17.4128 6.75365 16.6666 5.83317 16.6666C4.9127 16.6666 4.1665 17.4128 4.1665 18.3333C4.1665 19.2538 4.9127 20 5.83317 20Z" fill="#141C30"/>
        <path d="M14.1667 20C15.0871 20 15.8333 19.2538 15.8333 18.3333C15.8333 17.4128 15.0871 16.6666 14.1667 16.6666C13.2462 16.6666 12.5 17.4128 12.5 18.3333C12.5 19.2538 13.2462 20 14.1667 20Z" fill="#141C30"/>
        <path d="M19.7374 1.11337C19.5811 0.957148 19.3692 0.869385 19.1482 0.869385C18.9273 0.869385 18.7153 0.957148 18.5591 1.11337L14.2599 5.41671L12.9674 4.06754C12.8916 3.98864 12.8009 3.92545 12.7007 3.88157C12.6004 3.8377 12.4925 3.814 12.3831 3.81183C12.2737 3.80967 12.1649 3.82907 12.063 3.86894C11.961 3.90881 11.868 3.96837 11.7891 4.04421C11.7102 4.12005 11.647 4.21068 11.6031 4.31094C11.5592 4.4112 11.5355 4.51912 11.5334 4.62854C11.529 4.84952 11.6126 5.06319 11.7657 5.22254L13.1107 6.62171C13.2541 6.7765 13.4273 6.90062 13.6199 6.98656C13.8126 7.0725 14.0206 7.11848 14.2316 7.12171H14.2591C14.4658 7.12239 14.6706 7.082 14.8616 7.0029C15.0525 6.92379 15.2259 6.80753 15.3716 6.66087L19.7374 2.29171C19.8936 2.13543 19.9814 1.92351 19.9814 1.70254C19.9814 1.48157 19.8936 1.26965 19.7374 1.11337Z" fill="#141C30"/>
        <path d="M18.25 7.51333C18.1423 7.49387 18.0317 7.49582 17.9247 7.51909C17.8178 7.54235 17.7164 7.58648 17.6265 7.64893C17.5366 7.71138 17.4598 7.79095 17.4007 7.88307C17.3415 7.9752 17.3011 8.07808 17.2817 8.18583L17.175 8.77667C17.071 9.3536 16.7676 9.87566 16.3178 10.2516C15.868 10.6275 15.3004 10.8334 14.7142 10.8333H4.515L3.73167 4.16667H9.16667C9.38768 4.16667 9.59964 4.07887 9.75592 3.92259C9.9122 3.76631 10 3.55435 10 3.33333C10 3.11232 9.9122 2.90036 9.75592 2.74408C9.59964 2.5878 9.38768 2.5 9.16667 2.5H3.535L3.5 2.20667C3.42818 1.59883 3.13588 1.03846 2.67849 0.631753C2.2211 0.225045 1.6304 0.000260697 1.01833 0L0.833333 0C0.61232 0 0.400358 0.0877974 0.244078 0.244078C0.0877974 0.400358 0 0.61232 0 0.833333C0 1.05435 0.0877974 1.26631 0.244078 1.42259C0.400358 1.57887 0.61232 1.66667 0.833333 1.66667H1.01833C1.22244 1.66669 1.41945 1.74163 1.57198 1.87726C1.72451 2.0129 1.82195 2.19979 1.84583 2.4025L2.9925 12.1525C3.11154 13.1665 3.59873 14.1015 4.36159 14.78C5.12445 15.4585 6.10988 15.8334 7.13083 15.8333H15.8333C16.0543 15.8333 16.2663 15.7455 16.4226 15.5893C16.5789 15.433 16.6667 15.221 16.6667 15C16.6667 14.779 16.5789 14.567 16.4226 14.4107C16.2663 14.2545 16.0543 14.1667 15.8333 14.1667H7.13083C6.61377 14.1668 6.10939 14.0065 5.68718 13.708C5.26496 13.4096 4.94569 12.9875 4.77333 12.5H14.7142C15.6911 12.5001 16.6369 12.1569 17.3865 11.5304C18.1361 10.9039 18.6417 10.0339 18.815 9.0725L18.9217 8.48083C18.9608 8.26348 18.912 8.03951 18.786 7.8581C18.6601 7.67669 18.4673 7.55269 18.25 7.51333Z" fill="#141C30"/>
    </g>
    <defs>
        <clipPath id="clip0_35_2329">
            <rect width="20" height="20" fill="white"/>
        </clipPath>
    </defs>
</svg>

