<svg width="20" height="20" viewBox="0 0 20 20" fill="none" xmlns="http://www.w3.org/2000/svg">
    <g clip-path="url(#clip0_35_2345)">
        <path d="M19.1667 0H15C13.6217 0 12.5 1.12167 12.5 2.5V5.83333H1.66667V0.833333C1.66667 0.3725 1.29333 0 0.833333 0C0.373333 0 0 0.3725 0 0.833333V19.1667C0 19.6275 0.373333 20 0.833333 20C1.29333 20 1.66667 19.6275 1.66667 19.1667V17.5H18.3333V19.1667C18.3333 19.6275 18.7067 20 19.1667 20C19.6267 20 20 19.6275 20 19.1667V0.833333C20 0.3725 19.6267 0 19.1667 0ZM14.1667 2.5C14.1667 2.04 14.5408 1.66667 15 1.66667H18.3333V5.83333H14.1667V2.5ZM1.66667 12.5C1.66667 12.04 2.04083 11.6667 2.5 11.6667H5C5.45917 11.6667 5.83333 12.04 5.83333 12.5V15.8333H1.66667V12.5ZM11.6667 15.8333H7.5V12.5C7.5 12.04 7.87417 11.6667 8.33333 11.6667H10.8333C11.2925 11.6667 11.6667 12.04 11.6667 12.5V15.8333ZM13.3333 15.8333V12.5C13.3333 11.1217 12.2117 10 10.8333 10H8.33333C7.69333 10 7.10917 10.2417 6.66667 10.6383C6.22417 10.2417 5.64 10 5 10H2.5C2.2075 10 1.9275 10.0508 1.66667 10.1433V7.5H18.3333V15.8333H13.3333Z" fill="#141C30"/>
    </g>
    <defs>
        <clipPath id="clip0_35_2345">
            <rect width="20" height="20" fill="white"/>
        </clipPath>
    </defs>
</svg>
